<?xml version="1.0" standalone="no"?>
<!DOCTYPE svg PUBLIC "-//W3C//DTD SVG 20010904//EN"
 "http://www.w3.org/TR/2001/REC-SVG-20010904/DTD/svg10.dtd">
<svg version="1.0" xmlns="http://www.w3.org/2000/svg"
 width="512.000000pt" height="512.000000pt" viewBox="0 0 512.000000 512.000000"
 preserveAspectRatio="xMidYMid meet">
<metadata>
Created by potrace 1.11, written by Peter Selinger 2001-2013
</metadata>
<g transform="translate(0.000000,512.000000) scale(0.100000,-0.100000)"
fill="#000000" stroke="none">
<path d="M1766 3375 c-22 -8 -50 -24 -62 -37 -13 -13 -142 -232 -289 -487
-300 -525 -291 -502 -235 -613 72 -141 105 -163 247 -163 161 0 137 -28 455
529 255 446 268 471 268 520 0 42 -7 64 -41 121 -52 89 -65 104 -114 126 -49
23 -171 25 -229 4z"/>
<path d="M3573 3379 c-18 -5 -48 -24 -65 -42 -18 -18 -150 -237 -292 -487
-301 -526 -292 -503 -230 -621 51 -98 90 -134 154 -148 106 -23 201 -7 252 43
18 19 150 238 292 487 300 526 292 502 230 620 -46 88 -91 134 -141 148 -46
13 -156 13 -200 0z"/>
<path d="M4473 3379 c-18 -5 -48 -24 -65 -42 -18 -18 -150 -237 -292 -487
-301 -526 -292 -503 -230 -621 53 -101 89 -135 161 -149 107 -23 222 5 264 63
20 28 485 837 516 898 33 66 30 108 -14 192 -45 86 -90 132 -140 146 -46 13
-156 13 -200 0z"/>
<path d="M845 3361 c-16 -10 -40 -29 -51 -42 -20 -23 -487 -831 -526 -911 -29
-60 -23 -111 21 -192 44 -78 81 -119 124 -135 16 -6 69 -11 119 -11 109 0 153
20 197 89 16 26 138 237 272 471 l244 425 0 65 c0 60 -4 71 -47 140 -64 104
-94 120 -224 120 -79 0 -105 -4 -129 -19z"/>
<path d="M2205 2586 c-42 -19 -77 -59 -120 -139 -33 -60 -37 -75 -33 -120 6
-68 73 -187 126 -222 68 -45 228 -46 294 -1 52 34 120 155 126 221 4 48 0 62
-33 122 -44 81 -79 121 -122 139 -42 18 -198 18 -238 0z"/>
</g>
</svg>
